REM DIRINDEX 1\2\5,1\2\6,1\2\7,1\2\8,1\3\9,1\3\10,1\3\11,1\4\12,1\4\13,1\4\14,1\4\15,1\4\16
REM DIRNAME folder01,folder02,folder03,folder04,folder05,folder06,folder07,folder08,folder09,folder10,folder11,folder12,folder13,folder14,folder15,folder16
TITLE ""
FILE "1200_sec02_0346_0353.mp3" MP3
  TRACK 01 AUDIO
    TITLE "0:"
    INDEX 01 00:00:00
  TRACK 02 AUDIO
    TITLE "12:cjc034_05023"
    INDEX 01 00:00:17
  TRACK 03 AUDIO
    TITLE "0:"
    INDEX 01 00:01:15
  TRACK 04 AUDIO
    TITLE "13:cjc034_05024"
    INDEX 01 00:01:50
  TRACK 05 AUDIO
    TITLE "0:"
    INDEX 01 00:04:17
  TRACK 06 AUDIO
    TITLE "14:cjc034_05025"
    INDEX 01 00:04:46
  TRACK 07 AUDIO
    TITLE "0:"
    INDEX 01 00:05:46
  TRACK 08 AUDIO
    TITLE "15:cjc034_05026"
    INDEX 01 00:06:06
  TRACK 09 AUDIO
    TITLE "0:"
    INDEX 01 00:09:26
  TRACK 10 AUDIO
    TITLE "12:cjc034_05027"
    INDEX 01 00:10:61
  TRACK 11 AUDIO
    TITLE "0:"
    INDEX 01 00:11:66
  TRACK 12 AUDIO
    TITLE "13:cjc034_05028"
    INDEX 01 00:12:24
  TRACK 13 AUDIO
    TITLE "0:"
    INDEX 01 00:17:23
  TRACK 14 AUDIO
    TITLE "14:cjc034_05029"
    INDEX 01 00:17:57
  TRACK 15 AUDIO
    TITLE "0:"
    INDEX 01 00:18:62
  TRACK 16 AUDIO
    TITLE "15:cjc034_05030"
    INDEX 01 00:19:20
  TRACK 17 AUDIO
    TITLE "0:"
    INDEX 01 00:23:18
  TRACK 18 AUDIO
    TITLE "12:cjc034_05031"
    INDEX 01 00:24:51
  TRACK 19 AUDIO
    TITLE "0:"
    INDEX 01 00:25:72
  TRACK 20 AUDIO
    TITLE "13:cjc034_05032"
    INDEX 01 00:26:28
  TRACK 21 AUDIO
    TITLE "0:"
    INDEX 01 00:29:64
  TRACK 22 AUDIO
    TITLE "14:cjc034_05033"
    INDEX 01 00:30:22
  TRACK 23 AUDIO
    TITLE "0:"
    INDEX 01 00:31:43
  TRACK 24 AUDIO
    TITLE "15:cjc034_05034"
    INDEX 01 00:32:01
  TRACK 25 AUDIO
    TITLE "0:"
    INDEX 01 00:36:54
  TRACK 26 AUDIO
    TITLE "12:cjc034_05035"
    INDEX 01 00:38:12
  TRACK 27 AUDIO
    TITLE "0:"
    INDEX 01 00:39:17
  TRACK 28 AUDIO
    TITLE "13:cjc034_05036"
    INDEX 01 00:39:47
  TRACK 29 AUDIO
    TITLE "0:"
    INDEX 01 00:42:00
  TRACK 30 AUDIO
    TITLE "14:cjc034_05037"
    INDEX 01 00:42:31
  TRACK 31 AUDIO
    TITLE "0:"
    INDEX 01 00:43:33
  TRACK 32 AUDIO
    TITLE "15:cjc034_05038"
    INDEX 01 00:43:66
  TRACK 33 AUDIO
    TITLE "0:"
    INDEX 01 00:47:19
  TRACK 34 AUDIO
    TITLE "12:cjc034_05039"
    INDEX 01 00:48:55
  TRACK 35 AUDIO
    TITLE "0:"
    INDEX 01 00:49:61
  TRACK 36 AUDIO
    TITLE "13:cjc034_05040"
    INDEX 01 00:50:21
  TRACK 37 AUDIO
    TITLE "0:"
    INDEX 01 00:52:57
  TRACK 38 AUDIO
    TITLE "14:cjc034_05041"
    INDEX 01 00:53:15
  TRACK 39 AUDIO
    TITLE "0:"
    INDEX 01 00:54:21
  TRACK 40 AUDIO
    TITLE "15:cjc034_05042"
    INDEX 01 00:54:58
  TRACK 41 AUDIO
    TITLE "0:"
    INDEX 01 00:59:02
  TRACK 42 AUDIO
    TITLE "12:cjc034_05043"
    INDEX 01 01:00:35
  TRACK 43 AUDIO
    TITLE "0:"
    INDEX 01 01:01:62
  TRACK 44 AUDIO
    TITLE "13:cjc034_05044"
    INDEX 01 01:02:14
  TRACK 45 AUDIO
    TITLE "0:"
    INDEX 01 01:04:43
  TRACK 46 AUDIO
    TITLE "14:cjc034_05045"
    INDEX 01 01:05:01
  TRACK 47 AUDIO
    TITLE "0:"
    INDEX 01 01:06:26
  TRACK 48 AUDIO
    TITLE "15:cjc034_05046"
    INDEX 01 01:06:57
  TRACK 49 AUDIO
    TITLE "0:"
    INDEX 01 01:12:19
  TRACK 50 AUDIO
    TITLE "12:cjc034_05047"
    INDEX 01 01:13:55
  TRACK 51 AUDIO
    TITLE "0:"
    INDEX 01 01:14:72
  TRACK 52 AUDIO
    TITLE "13:cjc034_05048"
    INDEX 01 01:15:31
  TRACK 53 AUDIO
    TITLE "0:"
    INDEX 01 01:17:65
  TRACK 54 AUDIO
    TITLE "14:cjc034_05049"
    INDEX 01 01:18:25
  TRACK 55 AUDIO
    TITLE "0:"
    INDEX 01 01:19:44
  TRACK 56 AUDIO
    TITLE "15:cjc034_05050"
    INDEX 01 01:20:00
  TRACK 57 AUDIO
    TITLE "0:"
    INDEX 01 01:24:00
  TRACK 58 AUDIO
    TITLE "12:cjc034_05051"
    INDEX 01 01:25:33
  TRACK 59 AUDIO
    TITLE "0:"
    INDEX 01 01:26:52
  TRACK 60 AUDIO
    TITLE "13:cjc034_05052"
    INDEX 01 01:27:08
  TRACK 61 AUDIO
    TITLE "0:"
    INDEX 01 01:30:28
  TRACK 62 AUDIO
    TITLE "14:cjc034_05053"
    INDEX 01 01:30:60
  TRACK 63 AUDIO
    TITLE "0:"
    INDEX 01 01:32:04
  TRACK 64 AUDIO
    TITLE "15:cjc034_05054"
    INDEX 01 01:32:35
  TRACK 65 AUDIO
    TITLE "0:"
    INDEX 01 01:37:01
